<?xml version="1.0" encoding="utf-8"?>
<!-- Generator: Adobe Illustrator 16.0.0, SVG Export Plug-In . SVG Version: 6.00 Build 0)  -->
<!DOCTYPE svg PUBLIC "-//W3C//DTD SVG 1.1//EN" "http://www.w3.org/Graphics/SVG/1.1/DTD/svg11.dtd">
<svg version="1.1" id="Layer_1" xmlns="http://www.w3.org/2000/svg" xmlns:xlink="http://www.w3.org/1999/xlink" x="0px" y="0px"
	 width="97.688px" height="96.957px" viewBox="0 0 97.688 96.957" enable-background="new 0 0 97.688 96.957" xml:space="preserve">
<circle fill="#9EC716" cx="49.021" cy="48.288" r="48.667"/>
<ellipse transform="matrix(-0.007 -1 1 -0.007 30.9015 67.1915)" opacity="0.4" fill="#FDFDFE" enable-background="new    " cx="48.812" cy="18.253" rx="18.634" ry="22.825"/>
<ellipse transform="matrix(-0.0067 -1 1 -0.0067 -6.3635 47.4306)" opacity="0.4" fill="#FDFDFE" enable-background="new    " cx="20.376" cy="26.876" rx="2.641" ry="2.796"/>
<circle opacity="0.4" fill="#FDFDFE" enable-background="new    " cx="15.023" cy="33.564" r="1.657"/>
<path opacity="0.1" d="M73.157,6.035c2.373,5.592,3.687,11.742,3.687,18.199c0,25.75-20.875,46.625-46.625,46.625
	c-10.526,0-20.235-3.491-28.04-9.375c5.754,20.463,24.539,35.471,46.841,35.471c26.878,0,48.667-21.789,48.667-48.667
	C97.688,30.196,87.808,14.422,73.157,6.035z"/>
</svg>
